<?xml version="1.0" encoding="UTF-8"?>
<!DOCTYPE svg PUBLIC "-//W3C//DTD SVG 1.1//EN" "http://www.w3.org/Graphics/SVG/1.1/DTD/svg11.dtd">
<!-- Creator: CorelDRAW 2021 (64-Bit) -->
<svg xmlns="http://www.w3.org/2000/svg" xml:space="preserve" width="297mm" height="210mm" version="1.1" style="shape-rendering:geometricPrecision; text-rendering:geometricPrecision; image-rendering:optimizeQuality; fill-rule:evenodd; clip-rule:evenodd"
viewBox="0 0 29700 21000"
 xmlns:xlink="http://www.w3.org/1999/xlink"
 xmlns:xodm="http://www.corel.com/coreldraw/odm/2003">
 <defs>
  <style type="text/css">
   <![CDATA[
    .fil1 {fill:#473E69;fill-rule:nonzero}
    .fil0 {fill:url(#id0)}
   ]]>
  </style>
  <linearGradient id="id0" gradientUnits="userSpaceOnUse" x1="7275.82" y1="10507.35" x2="8577.29" y2="12346.13">
   <stop offset="0" style="stop-opacity:1; stop-color:#06D7A0"/>
   <stop offset="1" style="stop-opacity:1; stop-color:#7E71B1"/>
  </linearGradient>
 </defs>
 <g id="Layer_x0020_1">
  <metadata id="CorelCorpID_0Corel-Layer"/>
 </g>
 <g id="Layer_x0020_1_0">
  <metadata id="CorelCorpID_1Corel-Layer"/>
  <g id="_1709494878512">
   <path class="fil0" d="M7813.19 11079.5c-20.74,-10.01 -41.15,-20.74 -61.3,-32.11 -168.87,-95.43 -302.97,-225.63 -402.23,-390.67 -99.26,-165.04 -148.92,-353.22 -148.92,-564.67 0,-211.45 49.66,-399.63 148.92,-564.67 99.26,-165.04 232.71,-295.24 400.28,-390.6 167.64,-95.43 355.82,-143.14 564.68,-143.14 206.31,0 393.26,47.71 560.83,143.14 15.8,8.97 31.27,18.26 46.41,27.82l0 -506.37 502.8 0 0 1330.53 -4.03 0c2.66,33.74 4.03,68.19 4.03,103.29 0,211.45 -50.32,399.63 -150.87,564.67 -100.56,165.04 -234.6,295.24 -402.24,390.67 -20.02,11.37 -40.23,22.1 -60.77,32.11l613.94 0 0 506.62 -2223.79 0 0 -506.62 612.26 0zm1611.47 759.94l-1111.86 0 0 506.69 1111.86 0 0 -506.69zm-1110.04 -1113.1c113.49,0 213.4,-27.04 299.78,-81.19 86.39,-54.14 154.71,-129.61 204.96,-226.27 50.31,-96.72 75.4,-205.67 75.4,-326.83 0,-123.76 -25.09,-232.71 -75.4,-326.83 -50.25,-94.12 -118.57,-168.88 -204.96,-224.32 -86.38,-55.45 -186.29,-83.14 -299.78,-83.14 -116.03,0 -217.83,27.69 -305.51,83.14 -87.69,55.44 -156.66,130.2 -206.91,224.32 -50.31,94.12 -75.46,203.07 -75.46,326.83 0,121.16 25.15,230.11 75.46,326.83 50.25,96.66 119.22,172.13 206.91,226.27 87.68,54.15 189.48,81.19 305.51,81.19z"/>
   <path class="fil1" d="M11211.33 11586.14c169.92,0 357.12,-77.76 466.57,-195.84l0 155.52 345.6 0 0 -1440.03 -345.6 0 0 155.52c-109.45,-118.08 -296.65,-195.84 -466.57,-195.84 -449.29,0 -748.82,305.29 -748.82,760.34 0,455.04 299.53,760.33 748.82,760.33zm34.56 -305.29c-262.09,0 -437.77,-181.44 -437.77,-455.04 0,-273.61 175.68,-455.05 437.77,-455.05 259.2,0 432.01,181.44 432.01,455.05 0,273.6 -172.81,455.04 -432.01,455.04zm1938.28 305.29c455.05,0 760.34,-305.29 760.34,-760.33 0,-455.05 -305.29,-760.34 -760.34,-760.34 -175.68,0 -368.65,80.64 -478.09,198.72l0 -694.09 -345.61 0 0 1975.72 345.61 0 0 -158.4c109.44,118.08 302.41,198.72 478.09,198.72zm-34.56 -305.29c-264.97,0 -443.53,-181.44 -443.53,-455.04 0,-273.61 178.56,-455.05 443.53,-455.05 270.72,0 449.29,181.44 449.29,455.05 0,273.6 -178.57,455.04 -449.29,455.04zm1627.24 305.29c400.32,0 668.17,-190.08 668.17,-475.21 0,-262.08 -152.64,-371.53 -633.61,-472.33 -204.49,-46.08 -270.73,-83.52 -270.73,-144 0,-83.52 95.04,-141.12 236.17,-141.12 126.72,0 241.92,66.24 285.12,164.16l316.81 -77.76c-83.52,-224.65 -325.45,-374.41 -601.93,-374.41 -348.49,0 -581.78,178.56 -581.78,446.41 0,239.04 132.49,334.09 550.09,429.13 267.85,51.84 354.25,100.8 354.25,169.92 0,112.32 -129.6,187.2 -322.56,187.2 -192.97,0 -331.21,-97.92 -342.73,-241.92l-325.45 0c11.52,316.81 279.37,529.93 668.18,529.93zm1670.43 0c469.45,0 780.49,-305.29 780.49,-760.33 0,-455.05 -311.04,-760.34 -780.49,-760.34 -469.45,0 -780.5,305.29 -780.5,760.34 0,455.04 311.05,760.33 780.5,760.33zm0 -305.29c-262.09,0 -434.89,-181.44 -434.89,-455.04 0,-273.61 172.8,-455.05 434.89,-455.05 262.08,0 434.89,181.44 434.89,455.05 0,273.6 -172.81,455.04 -434.89,455.04zm1031.05 264.97l345.6 0 0 -1975.72 -345.6 0 0 1975.72zm2076.51 -1440.03l-345.61 0 0 855.38c0,192.96 -141.12,319.68 -351.36,319.68 -210.25,0 -351.37,-126.72 -351.37,-319.68l0 -855.38 -345.61 0 0 895.7c0,351.37 262.09,584.65 656.66,584.65 141.12,0 296.64,-57.6 391.68,-146.88l0 106.56 345.61 0 0 -1440.03zm964.82 1480.35c95.04,0 192.96,-17.28 244.8,-40.32l0 -247.69 -250.56 0c-74.89,0 -126.73,-48.96 -126.73,-120.96l0 -783.37 362.89 0 0 -288.01 -362.89 0 0 -535.69 -345.6 0 0 535.69 -230.41 0 0 288.01 230.41 0 0 783.37c0,244.81 190.08,408.97 478.09,408.97zm1195.22 0c351.37,0 650.89,-213.12 745.93,-529.93l-351.36 0c-66.25,144 -224.65,241.92 -394.57,241.92 -224.65,0 -397.45,-149.76 -429.13,-377.28l1180.82 0 28.8 -28.8 0 -66.24c0,-455.05 -311.04,-760.34 -780.49,-760.34 -469.45,0 -780.5,305.29 -780.5,760.34 0,455.04 311.05,760.33 780.5,760.33zm-406.09 -953.3c66.24,-178.56 213.12,-279.36 406.09,-279.36 192.96,0 339.84,100.8 406.09,279.36l-812.18 0z"/>
  </g>
 </g>
</svg>
